{
  "accessors": [
    {
      "bufferView": 2,
      "componentType": 5126,
      "count": 52231,
      "max": [
        -10.55059814453125,
        2.7111761569976807,
        10.174478530883789
      ],
      "min": [
        -18.40601921081543,
        -9.895172119140625,
        -7.90189790725708
      ],
      "type": "VEC3"
    },
    {
      "bufferView": 2,
      "byteOffset": 626772,
      "componentType": 5126,
      "count": 52231,
      "max": [
        0.9999482035636902,
        0.9999791979789734,
        1.0
      ],
      "min": [
        -0.9999483227729797,
        -0.9999772310256958,
        -0.9999971985816956
      ],
      "type": "VEC3"
    },
    {
      "bufferView": 1,
      "componentType": 5126,
      "count": 52231,
      "max": [
        0.9997550249099731,
        0.4030759930610657
      ],
      "min": [
        0.00024399999529123306,
        0.00024399999529123306
      ],
      "type": "VEC2"
    },
    {
      "bufferView": 0,
      "componentType": 5125,
      "count": 299646,
      "type": "SCALAR"
    }
  ],
  "asset": {
    "extras": {
      "author": "Austin Beaulier (https://sketchfab.com/Austin.Beaulier)",
      "license": "CC-BY-4.0 (http://creativecommons.org/licenses/by/4.0/)",
      "source": "https://sketchfab.com/3d-models/akira-vol-1-photogrammetry-728d17781c464189953e2d9482373b36",
      "title": "Akira vol. 1 (photogrammetry)"
    },
    "generator": "Sketchfab-12.68.0",
    "version": "2.0"
  },
  "bufferViews": [
    {
      "buffer": 0,
      "byteLength": 1198584,
      "name": "floatBufferViews",
      "target": 34963
    },
    {
      "buffer": 0,
      "byteLength": 417848,
      "byteOffset": 1198584,
      "byteStride": 8,
      "name": "floatBufferViews",
      "target": 34962
    },
    {
      "buffer": 0,
      "byteLength": 1253544,
      "byteOffset": 1616432,
      "byteStride": 12,
      "name": "floatBufferViews",
      "target": 34962
    }
  ],
  "buffers": [
    {
      "byteLength": 2869976,
      "uri": "scene.bin"
    }
  ],
  "extensionsUsed": [
    "KHR_materials_unlit"
  ],
  "images": [
    {
      "uri": "textures/model_Material_u1_v1_baseColor.jpeg"
    }
  ],
  "materials": [
    {
      "doubleSided": true,
      "extensions": {
        "KHR_materials_unlit": {}
      },
      "name": "model_Material_u1_v1",
      "pbrMetallicRoughness": {
        "baseColorTexture": {
          "index": 0
        },
        "metallicFactor": 0.0
      }
    }
  ],
  "meshes": [
    {
      "name": "Object_0",
      "primitives": [
        {
          "attributes": {
            "NORMAL": 1,
            "POSITION": 0,
            "TEXCOORD_0": 2
          },
          "indices": 3,
          "material": 0,
          "mode": 4
        }
      ]
    }
  ],
  "nodes": [
    {
      "children": [
        1
      ],
      "matrix": [
        0.3712911307811737,
        2.0617208099621258e-16,
        -0.9285165071487427,
        0.0,
        -0.9285165071487427,
        8.244319244647385e-17,
        -0.3712911307811737,
        0.0,
        0.0,
        1.0,
        2.220446049250313e-16,
        0.0,
        -12.43785285949707,
        2.483570481567757e-15,
        -11.185007095336914,
        1.0
      ],
      "name": "Sketchfab_model"
    },
    {
      "children": [
        2
      ],
      "name": "model.obj.cleaner.materialmerger.gles"
    },
    {
      "mesh": 0,
      "name": "Object_2"
    }
  ],
  "samplers": [
    {
      "magFilter": 9729,
      "minFilter": 9987,
      "wrapS": 10497,
      "wrapT": 10497
    }
  ],
  "scene": 0,
  "scenes": [
    {
      "name": "Sketchfab_Scene",
      "nodes": [
        0
      ]
    }
  ],
  "textures": [
    {
      "sampler": 0,
      "source": 0
    }
  ]
}
